<?xml version="1.0" encoding="UTF-8" standalone="no"?>
<!-- Created with Inkscape (http://www.inkscape.org/) -->

<svg
   xmlns:osb="http://www.openswatchbook.org/uri/2009/osb"
   xmlns:dc="http://purl.org/dc/elements/1.1/"
   xmlns:cc="http://creativecommons.org/ns#"
   xmlns:rdf="http://www.w3.org/1999/02/22-rdf-syntax-ns#"
   xmlns:svg="http://www.w3.org/2000/svg"
   xmlns="http://www.w3.org/2000/svg"
   xmlns:sodipodi="http://sodipodi.sourceforge.net/DTD/sodipodi-0.dtd"
   xmlns:inkscape="http://www.inkscape.org/namespaces/inkscape"
   width="118.38982mm"
   height="110.5044mm"
   viewBox="0 0 118.38982 110.5044"
   version="1.1"
   id="svg8"
   sodipodi:docname="change-de-world.svg"
   inkscape:version="0.92.4 (5da689c313, 2019-01-14)">
  <defs
     id="defs2">
    <linearGradient
       id="linearGradient1228"
       osb:paint="solid">
      <stop
         style="stop-color:#ff0139;stop-opacity:1;"
         offset="0"
         id="stop1226" />
    </linearGradient>
  </defs>
  <sodipodi:namedview
     id="base"
     pagecolor="#ffffff"
     bordercolor="#666666"
     borderopacity="1.0"
     inkscape:pageopacity="0.0"
     inkscape:pageshadow="2"
     inkscape:zoom="0.24748737"
     inkscape:cx="-1777.0611"
     inkscape:cy="150.8326"
     inkscape:document-units="mm"
     inkscape:current-layer="g974"
     showgrid="false"
     inkscape:snap-center="true"
     showguides="true"
     inkscape:guide-bbox="true"
     inkscape:snap-nodes="true"
     inkscape:snap-others="true"
     inkscape:snap-bbox="true"
     inkscape:snap-global="true"
     inkscape:window-width="1920"
     inkscape:window-height="986"
     inkscape:window-x="-11"
     inkscape:window-y="-11"
     inkscape:window-maximized="1"
     inkscape:pagecheckerboard="true"
     fit-margin-top="0"
     fit-margin-left="0"
     fit-margin-right="0"
     fit-margin-bottom="0" />
  <metadata
     id="metadata5">
    <rdf:RDF>
      <cc:Work
         rdf:about="">
        <dc:format>image/svg+xml</dc:format>
        <dc:type
           rdf:resource="http://purl.org/dc/dcmitype/StillImage" />
        <dc:title></dc:title>
      </cc:Work>
    </rdf:RDF>
  </metadata>
  <g
     inkscape:label="Capa 1"
     inkscape:groupmode="layer"
     id="layer1"
     transform="translate(-5.1183561,-174.67508)">
    <g
       id="g974"
       transform="matrix(0.26458333,0,0,0.26458333,-6.8413675,30.092118)">
      <g
         id="g3426"
         transform="translate(1107.1271,339.41126)">
        <g
           transform="rotate(30,-838.83342,414.60432)"
           id="g3415">
          <path
             style="fill:#01ffc7;fill-opacity:1;fill-rule:nonzero;stroke-width:0.88519973"
             inkscape:connector-curvature="0"
             d="m -678.64941,414.59767 v 0.95289 q -0.0328,3.58948 -0.20704,7.14661 a 160.18382,159.17454 0 0 1 -319.83385,2.07895 q -0.32692,-5.05133 -0.3269,-10.17847 a 159.39036,158.38608 0 0 1 29.45426,-92.0073 q 2.30464,-3.24847 4.79458,-6.37777 c 1.14416,-1.451 2.32104,-2.8695 3.50883,-4.27715 a 160.214,159.20453 0 0 1 223.23312,-21.05003 c 1.92874,1.54842 3.82481,3.15098 5.67723,4.78605 q 2.22303,1.96536 4.36965,4.01728 a 159.75061,158.74406 0 0 1 48.77438,101.5253 q 0.55578,6.62678 0.55574,13.38364 z"
             id="path988" />
          <path
             style="fill:#3f3d56;stroke-width:0.88519973"
             inkscape:connector-curvature="0"
             d="m -964.76835,316.2126 a 0.89086992,0.88525677 0 0 1 0.21794,0.12993 c 0.86085,0.70384 -0.21794,2.05736 -0.0872,3.17267 0.15256,1.42932 2.07041,1.74335 3.5197,1.88411 1.44928,0.15159 3.27995,1.31021 2.59345,2.58794 -3.63956,1.24524 -7.32269,0.0216 -11.03853,-1.39685 a 159.3906,158.38632 0 0 0 -29.4542,92.00726 q 0,5.13256 0.32691,10.1785 a 4.1401746,4.1140884 0 0 0 0.99162,0.53059 c 1.08968,0.41147 2.35372,0.33567 3.35623,0.9204 0.79548,0.46561 1.32942,1.28855 2.12489,1.72168 2.27744,1.23442 5.43753,-1.13696 7.56242,0.33568 a 19.539385,19.416272 0 0 1 1.55826,1.58092 c 1.96143,1.6892 5.18691,0.55223 7.45345,1.81913 1.46018,0.81211 2.21206,2.43632 2.99664,3.90898 1.95053,3.6816 5.11063,7.29821 9.28412,7.59058 a 25.00158,24.844052 0 0 1 3.94467,0.12993 c 1.28583,0.29236 2.54986,1.40767 2.34283,2.69622 -0.3596,2.21978 0.74098,4.64531 0.44677,6.86513 -0.53395,4.06057 -6.32019,5.83639 -6.81054,9.89697 a 24.607228,24.452184 0 0 1 -0.15256,2.67458 c -0.26152,1.06116 -1.06789,1.92742 -1.35121,2.98858 -0.54484,2.00322 0.90444,4.00644 2.48449,5.34915 1.59093,1.35353 3.48699,2.52298 4.35874,4.40708 0.91534,2.00322 0.46857,4.33129 0.76279,6.50775 0.65381,4.75359 4.78372,8.27275 9.0335,10.54668 a 9.4320607,9.3726317 0 0 1 3.53058,2.55545 c 1.08969,1.57008 0.98072,3.63827 1.35122,5.51151 0.89354,4.58032 4.77282,8.35937 4.88179,13.02632 0.0763,3.32427 -1.77619,6.33451 -2.88767,9.46386 a 21.979578,21.84109 0 0 0 -0.99161,10.2218 160.95129,159.93718 0 0 0 19.75601,14.23909 5.756311,5.720042 0 0 0 0.81726,-1.81914 3.6206847,3.5978717 0 0 0 -1.68898,-3.72491 8.9578856,8.9014442 0 0 0 3.1274,-1.99238 3.0678149,3.0484854 0 0 0 0.56664,-3.44337 c 1.91785,0.23825 4.19529,0.35733 5.45933,-1.10448 1.01341,-1.16945 0.94803,-2.92361 0.54485,-4.40708 -0.40316,-1.49429 -1.07879,-2.93444 -1.0897,-4.48288 a 81.147493,80.636203 0 0 0 13.31597,-0.44396 8.6442345,8.5897694 0 0 0 -4.05363,-5.04593 c 2.00503,-0.33568 3.8248,-2.71789 4.45682,-4.63448 a 11.87934,11.804491 0 0 0 0.0872,-5.98801 3.2056327,3.1854349 0 0 1 -0.0654,-1.55927 3.0872888,3.0678366 0 0 1 1.59095,-1.52677 q 4.96897,-2.8424 9.93793,-5.67398 a 5.9915426,5.9537915 0 0 0 1.59095,-1.1586 c 1.0352,-1.22359 0.88267,-3.05355 0.3487,-4.55867 -0.53398,-1.50513 -1.38391,-2.92362 -1.59095,-4.50454 -0.61022,-4.73192 4.48951,-8.13198 6.21122,-12.5932 a 19.033428,18.913503 0 0 0 0.93713,-5.51156 c 0.14166,-2.01404 0.15256,-4.34211 -1.3948,-5.63064 -1.49287,-1.24524 -3.8139,-0.96371 -5.37216,-2.12233 -1.42749,-1.06116 -1.91784,-3.10769 -3.47609,-3.96312 -1.41659,-0.77963 -3.18189,-0.28153 -4.76194,-0.64969 -2.7678,-0.63886 -4.51129,-3.81153 -7.34448,-4.10389 -1.59094,-0.17325 -3.39982,0.60638 -4.70745,-0.31402 -1.15507,-0.82294 -1.19865,-2.458 -1.41659,-3.84401 a 10.806137,10.73805 0 0 0 -8.71751,-8.68422 c -1.64543,-0.25988 -3.43251,-0.16243 -4.83821,-1.06117 -1.41659,-0.90957 -2.05951,-2.60959 -3.18189,-3.8765 -1.78708,-2.02487 -4.62027,-2.75035 -7.2682,-3.36756 q -5.39395,-1.25066 -10.777,-2.51215 c -1.90695,-0.45479 -4.36965,-0.69301 -5.40484,0.97454 a 7.3721099,7.3256602 0 0 0 -0.63202,2.00322 6.251665,6.2122748 0 0 1 -5.86252,4.37459 6.9269991,6.8833539 0 0 0 -4.07543,-3.14018 25.713554,25.551539 0 0 1 -3.31264,-0.77963 4.6411585,4.6119157 0 0 1 -2.00502,-6.39947 5.7821696,5.7457376 0 0 0 -0.99162,-6.89757 c -1.83067,-1.6351 -4.4786,-2.03571 -6.9413,-1.87327 -0.64291,-1.39685 0.43588,-2.96693 1.59094,-3.98479 1.16595,-1.00702 2.57166,-2.00321 2.8223,-3.51916 0.40315,-2.3822 -2.65884,-4.19055 -4.97987,-3.48668 -2.32104,0.71466 -3.80301,2.9561 -4.78373,5.16505 a 15.675671,15.576903 0 0 1 -1.92874,3.67077 3.7865723,3.7627141 0 0 1 -3.66135,1.49429 c -1.91785,-0.48727 -2.64794,-2.75037 -3.07292,-4.65613 a 30.5531,30.360593 0 0 1 -1.0243,-7.80714 10.256082,10.191461 0 0 1 2.96395,-7.1033 c 3.17099,-2.90196 8.05278,-2.62042 12.33523,-2.15484 a 3.1419453,3.1221487 0 0 1 0.32691,-4.11472 4.7080605,4.6783963 0 0 1 4.27157,-1.03947 5.8606956,5.8237688 0 0 1 3.30175,1.9599 c 1.22044,1.47264 1.5691,3.47586 2.48448,5.1434 0.92624,1.67834 2.99664,3.1077 4.68565,2.20896 1.47108,-0.77964 1.69991,-2.7937 1.34032,-4.40709 -0.3705,-1.60257 -1.14418,-3.17266 -1.01342,-4.81854 0.25063,-3.12935 3.53059,-5.0243 6.41826,-6.31285 2.88766,-1.28855 6.18942,-3.03189 6.64709,-6.15037 a 5.7835549,5.7471142 0 0 1 0.3487,-1.77583 3.4935584,3.4715464 0 0 1 1.29672,-1.21276 c 8.42327,-5.53321 16.99911,-11.14223 26.63194,-14.1633 0.50125,-0.16241 0.55573,0.0109 1.06789,-0.10828 0.71919,-0.41146 0.23976,-1.54842 -0.44677,-2.00321 -0.68653,-0.45478 -1.60184,-0.81211 -1.77619,-1.61341 -0.11988,-0.58472 0.22884,-1.16944 0.31601,-1.76499 a 2.2176155,2.2036428 0 0 0 -2.90947,-2.23062 c -0.77368,-1.01784 0.75189,-2.19811 1.99413,-2.54462 a 54.463806,54.120644 0 0 1 11.38722,-1.8408 2.0277252,2.014949 0 0 1 1.29673,0.21657 1.5409759,1.5312666 0 0 1 0.0981,2.10067 11.93492,11.859721 0 0 1 -1.7326,1.57009 4.759689,4.7296994 0 0 0 -1.24224,4.75358 c 2.01592,1.01786 4.19529,2.06819 6.42913,1.71086 2.22296,-0.35733 4.19529,-2.84781 3.14919,-4.82941 -0.96981,-1.85162 -3.90107,-2.27392 -4.40233,-4.29879 -0.58843,-2.37138 2.78959,-4.48288 2.02682,-6.80012 -0.32691,-1.01785 -1.35121,-1.62423 -2.13579,-2.34972 a 6.447123,6.4065013 0 0 1 -1.4057,-7.08164 8.1197274,8.0685671 0 0 1 -7.10475,-2.20896 c -1.69991,-1.70003 -3.05112,-4.39625 -5.47024,-4.30962 -2.21205,0.065 -4.11901,2.63125 -6.18941,1.85162 -0.51216,-0.19491 -1.04607,-0.58472 -1.53646,-0.35733 a 1.2700022,1.2620003 0 0 0 -0.57753,0.94205 c -0.52303,2.50132 0.38139,5.34915 -0.99162,7.51478 -1.49286,2.34972 -4.94717,2.67457 -6.75605,4.79689 -0.98072,1.1478 -1.36211,2.69622 -2.26655,3.90899 -0.90445,1.21276 -2.81142,1.99238 -3.90108,0.93122 a 5.369826,5.3359921 0 0 0 -1.46018,-6.49692 14.040789,13.952322 0 0 0 -3.22547,-1.55922 19.142483,19.021871 0 0 1 -3.60686,-1.99239 3.5742067,3.5516866 0 0 1 -1.31852,-1.40767 3.2571901,3.2366674 0 0 1 0.0872,-2.23061 9.1745846,9.1167779 0 0 1 7.29,-5.99882 c 1.43839,-0.19491 3.11651,-0.12994 4.07543,-1.22359 0.50126,-0.5739 0.76279,-1.45098 1.50376,-1.67834 a 2.1923074,2.1784942 0 0 1 1.38391,0.16243 c 1.79798,0.62803 3.58507,1.25607 5.38307,1.88411 a 3.6874092,3.6641758 0 0 0 1.91784,0.31401 1.2900355,1.2819074 0 0 0 1.12238,-1.35352 c -0.17435,-0.88792 -1.54735,-1.31022 -1.41659,-2.20896 a 1.4132369,1.4043325 0 0 1 0.44677,-0.75799 19.254798,19.133478 0 0 1 15.26652,-5.98801 c 0.67561,1.11531 -0.39228,2.42552 -1.29673,3.36757 -0.89354,0.95289 -1.61273,2.64209 -0.52303,3.36758 a 2.8707673,2.8526794 0 0 0 1.42749,0.32485 12.450831,12.372382 0 0 1 3.8139,1.14779 c 1.86336,0.80128 3.69404,1.6892 5.48112,2.64208 a 6.910278,6.8667382 0 0 1 0.13076,-3.50834 2.3976045,2.3824978 0 0 1 2.83319,-1.52678 c 1.06789,0.41148 1.61273,1.81914 2.75691,1.94908 1.51466,0.17325 2.11398,-2.05736 1.48196,-3.44337 -0.63201,-1.38602 -1.89605,-2.5338 -1.99412,-4.06058 -0.0763,-1.01785 0.31601,-2.28475 -0.50126,-2.90196 a 2.1677542,2.1540957 0 0 0 -0.96982,-0.3465 q -10.26484,-1.86787 -20.54058,-3.74656 c -1.22045,-0.22739 -2.97485,-0.0542 -3.02933,1.16945 -0.0327,0.693 0.58843,1.37518 0.31601,2.00321 -0.29422,0.67135 -1.25314,0.61721 -1.95054,0.85543 a 2.6483673,2.6316806 0 0 0 -1.52559,2.78285 7.6334311,7.5853348 0 0 0 1.28583,3.12935 c -1.34032,-0.55224 -3.35624,-0.64969 -4.69656,-1.21276 a 18.076295,17.962401 0 0 0 -1.17686,-4.4937 1.5961652,1.5861082 0 0 0 -2.08129,-1.27773 c -1.7653,0.27071 -3.53059,0.53058 -5.29589,0.80129 a 2.0484511,2.0355444 0 0 0 -1.20954,0.46561 c -0.68651,0.72549 -0.0109,1.8841 -0.0327,2.88031 a 2.7163349,2.69922 0 0 1 -2.1031,2.32806 7.9274307,7.877482 0 0 1 -3.35624,-0.0433 c -2.47358,-0.37898 -4.93628,-0.75799 -7.40987,-1.13696 a 12.13821,12.061731 0 0 0 5.60099,-3.7249 c 0.98072,-1.14779 1.50377,-3.29178 0.0872,-3.83317 a 3.3807822,3.3594808 0 0 0 -1.28583,-0.0974 c -3.35624,0.0216 -6.00417,-2.76119 -9.14248,-3.94147 a 8.9867634,8.9301401 0 0 0 -3.0838,-0.56306 z"
             id="path990" />
          <path
             style="fill:#3f3d56;stroke-width:0.88519973"
             inkscape:connector-curvature="0"
             d="m -678.85643,422.69717 a 3.9346377,3.9098466 0 0 1 -3.33444,1.57009 c -3.41072,-0.29237 -4.8491,-5.17589 -8.22713,-5.72812 a 1.3165424,1.3082472 0 0 0 -0.89355,0.0866 c -0.50126,0.2707 -0.58843,0.94206 -0.62112,1.50512 -0.14166,2.7937 -0.26152,5.69563 0.83906,8.27275 1.60184,3.76822 5.75355,6.93005 4.8818,10.92566 -4.68565,-2.15484 -7.12656,-7.38486 -8.22714,-12.39829 -1.11148,-5.01347 -1.28582,-10.27597 -3.26906,-15.01873 -1.51466,1.91659 -4.67475,0.33567 -6.04775,-1.67834 -1.30763,-1.90577 -2.114,-4.11472 -3.37803,-6.05297 -1.26404,-1.92742 -3.20368,-3.65993 -5.51382,-3.76821 -2.43,-0.10828 -4.54399,1.54843 -6.39645,3.11852 a 14.803174,14.709903 0 0 0 -3.97736,4.39625 c -1.29672,2.59877 -0.95893,5.65232 -1.0243,8.54346 -0.0654,3.11853 -0.7301,6.42113 -2.87678,8.71671 -2.14668,2.28475 -6.10224,3.08604 -8.46686,1.01784 a 9.5516745,9.4914919 0 0 1 -2.36462,-4.23378 207.33,206.02367 0 0 1 -6.40736,-22.71756 c -0.39228,1.75417 -1.95053,4.01726 -3.43251,2.98859 a 3.0609418,3.0416556 0 0 1 -0.78457,-1.01786 c -2.76781,-4.6453 -7.87843,-7.43898 -13.05444,-9.11735 -5.16512,-1.66754 -10.60265,-2.44717 -15.71328,-4.28797 a 40.175051,39.921919 0 0 1 -8.16175,-4.03891 6.4268943,6.3864001 0 0 0 -0.39228,6.51857 5.2548476,5.2217381 0 0 0 5.9061,2.45801 c 1.13326,-0.36816 2.09219,-1.14779 3.21456,-1.53761 1.12237,-0.37899 2.63704,-0.19491 3.1274,0.88791 0.47946,1.02868 -0.23976,2.27396 0.11988,3.35675 0.53395,1.63509 3.02933,1.76499 3.90108,3.25929 a 3.0361665,3.0170364 0 0 1 -0.81726,3.48668 14.68547,14.59294 0 0 1 -3.29086,2.01405 c -3.66134,2.02487 -6.26569,5.47907 -9.46937,8.16446 -3.20368,2.69622 -7.72588,4.65613 -11.53978,2.93445 0.90444,-4.58034 -4.57669,-7.93708 -5.59009,-12.49576 -0.33781,-1.50512 -0.16346,-3.09687 -0.63202,-4.55867 -0.68651,-2.12233 -2.58256,-3.57331 -4.12991,-5.17589 a 20.473944,20.344943 0 0 1 -5.61189,-14.7805 c 0.0872,-1.8841 0.43588,-3.8007 0,-5.64149 -0.42498,-1.82997 -1.96143,-3.60579 -3.85748,-3.53 -4.32606,0.19491 -9.78538,0.51974 -12.05195,-3.15101 -0.81727,-1.3102 -1.16595,-3.2268 0.0109,-4.23378 0.82816,-0.70384 2.04862,-0.63887 3.1274,-0.53059 3.25816,0.31402 6.50543,0.63887 9.76358,0.95288 2.27745,0.21657 4.74015,0.40061 6.70157,-0.77963 1.96142,-1.18023 2.81141,-4.33128 0.99161,-5.72812 -1.31851,-1.01785 -3.69403,-0.96371 -4.08632,-2.57711 -0.31601,-1.35353 1.18776,-2.8803 0.3705,-4.01726 -0.57754,-0.80129 -1.88516,-0.58473 -2.68063,0.0216 a 17.512405,17.402064 0 0 1 -2.25565,1.95991 c -1.55826,0.80129 -3.41073,0.0325 -5.08884,-0.48727 -1.67811,-0.51974 -3.92287,-0.56307 -4.72924,0.98537 -0.91534,1.72168 0.79548,3.99561 -0.0981,5.72812 -1.19866,2.28475 -5.2305,0.98536 -6.90865,2.9561 -1.91784,2.25227 1.30763,5.63064 0.66471,8.51096 a 5.3394208,5.3057785 0 0 1 -5.26318,-0.29236 5.0953536,5.0632491 0 0 1 -2.20117,-4.72109 c 0.15256,-1.29939 0.83906,-2.63126 0.38139,-3.85485 a 4.5286487,4.5001148 0 0 0 -2.29924,-2.08984 q -4.74015,-2.61501 -9.4803,-5.20837 c -0.88267,1.62424 0.22883,3.62745 1.62363,4.85104 1.3839,1.21276 3.1274,2.13316 4.04273,3.73573 a 4.9410899,4.9099574 0 0 1 -1.85247,6.47527 1.1494826,1.14224 0 0 1 -0.94802,0.16242 1.3136653,1.3053882 0 0 1 -0.61022,-0.81211 c -1.66723,-4.25548 -4.1844,-8.44601 -8.19448,-10.66579 -4.02094,-2.23061 -9.78538,-1.76499 -12.42243,1.97074 -0.62112,0.88791 -1.04606,1.90576 -1.59094,2.84782 -2.88767,4.99177 -9.09887,7.35235 -14.89601,7.20075 a 2.8709094,2.8528205 0 0 1 -1.62364,-0.37898 c -0.93712,-0.63886 -0.89354,-2.00322 -0.75188,-3.12936 0.20704,-1.59175 0.40316,-3.17266 0.61023,-4.7644 a 3.8399412,3.8157467 0 0 1 1.057,-2.60961 c 1.07879,-0.84459 2.62614,-0.31401 3.99914,-0.33566 a 5.0376335,5.0058926 0 0 0 4.58758,-3.51917 5.6927833,5.6569146 0 0 0 -1.59094,-5.63064 c -0.62112,-0.58472 -1.46018,-1.32103 -1.13328,-2.11149 a 1.765818,1.754692 0 0 1 1.23135,-0.82295 c 2.45177,-0.70384 5.05615,-0.88792 7.46436,-1.73251 2.4191,-0.83377 4.76192,-2.54463 5.33945,-5.02429 0.17435,-0.75799 0.25063,-1.67834 0.93714,-2.05736 a 3.0348345,3.0157128 0 0 1 1.08968,-0.21656 5.3035722,5.2701558 0 0 0 4.544,-5.4899 c 1.15506,-0.80129 2.7787,-0.20573 3.90108,0.64969 1.11147,0.85543 2.10309,1.98157 3.46519,2.34972 2.53898,0.693 4.99077,-1.54843 7.62781,-1.55926 1.11148,0 2.25565,0.38982 3.29086,0.0109 1.05698,-0.37898 1.68898,-1.41849 2.49537,-2.18729 0.81727,-0.77963 2.23386,-1.24524 2.98575,-0.41147 -0.21795,-1.5701 -0.42498,-3.12935 -0.64292,-4.68862 a 9.275577,9.217134 0 0 0 7.55157,-1.36435 c -2.74601,-0.92041 -5.48112,-1.8408 -8.22713,-2.76119 a 1.7753196,1.7641337 0 0 1 -0.77368,-0.41148 c -0.59932,-0.63886 0,-1.63505 0.47946,-2.36055 1.16595,-1.74334 1.36211,-4.61281 -0.55573,-5.47907 -1.30763,-0.59555 -2.8005,0.11913 -4.05364,0.81212 -2.00502,1.10447 -4.01005,2.21978 -6.01507,3.32425 -0.18524,1.13697 1.20955,1.78665 2.0704,2.54463 a 3.4722286,3.450351 0 0 1 -2.26654,6.03131 4.3497963,4.3223893 0 0 1 0.77367,3.64911 c -1.34031,0.0974 -2.69153,0.19491 -4.04273,0.29236 a 1.7360433,1.7251049 0 0 1 -1.30762,-0.25988 c -0.43588,-0.37898 -0.3705,-1.05033 -0.47947,-1.6134 a 3.5073313,3.4852325 0 0 0 -2.96394,-2.56629 10.23215,10.16768 0 0 0 -4.12991,0.379 2.5164103,2.500555 0 0 1 -1.78709,-0.0433 1.7827344,1.7715018 0 0 1 -0.6974,-0.88791 4.5562566,4.5275488 0 0 1 0.91534,-4.35291 25.075089,24.917098 0 0 1 3.44341,-3.15101 20.073828,19.947348 0 0 0 5.98238,-9.20397 c 2.22296,-0.93123 4.52219,-2.18731 6.75605,-3.11853 a 26.988919,26.818869 0 0 1 5.61188,-1.87328 26.519566,26.352473 0 0 1 5.50295,-0.25987 c 2.50628,0.0433 5.02342,0.0867 7.52973,0.14076 a 18.121397,18.007219 0 0 1 6.5926,0.94206 c 2.05951,0.8446 3.87928,2.67457 4.02095,4.88352 a 1.5089102,1.4994029 0 0 1 -0.49037,1.37517 1.765738,1.7546126 0 0 1 -0.94802,0.21657 c -2.08131,0.065 -2.96395,0.58473 -5.04525,0.66052 1.31852,1.39685 2.8005,2.86948 4.71834,3.11852 3.37803,0.43313 5.80803,-3.04272 7.36628,-6.06379 a 2.9736246,2.9548885 0 0 0 3.10561,2.73954 6.2627295,6.2232696 0 0 0 2.34282,-0.90957 46.086292,45.795914 0 0 1 21.84822,-5.60901 2.3525828,2.3377598 0 0 1 1.79798,-2.57711 c 1.55824,-0.3032 2.95305,1.02867 3.70493,2.41469 0.74099,1.386 1.20955,2.98858 2.4082,4.02809 1.18777,1.03947 3.487,0.98536 3.95557,-0.50893 0.45767,-1.44015 -1.057,-2.67458 -2.31013,-3.52999 -1.26404,-0.8446 -2.58256,-2.4147 -1.73261,-3.67081 6.40736,-1.4185 12.86919,-2.82616 19.44001,-3.1077 a 8.2724637,8.2203411 0 0 0 3.26906,-0.56306 2.5410079,2.5249977 0 0 0 1.52559,-2.67457 7.4295992,7.3827872 0 0 1 -7.73678,-2.90197 c 6.74516,-0.55223 13.80633,-1.03947 20.28995,0.46561 l 5.67727,4.78607 c -1.07879,1.11531 -2.51718,2.16565 -1.73261,3.28095 a 2.4155688,2.4003489 0 0 0 1.99414,0.68218 c 1.373,0.0216 2.746,0.0542 4.10811,0.0542 a 159.75095,158.7444 0 0 1 48.77438,101.52529 c -2.28838,-0.0866 -4.39143,2.7937 -4.09724,5.30582 0.34869,2.91283 2.46269,5.25168 3.97736,7.76382 a 11.906584,11.831564 0 0 1 0.67561,1.2669 z"
             id="path992" />
        </g>
        <g
           transform="rotate(15,-837.87124,415.65194)"
           id="g1153">
          <path
             inkscape:connector-curvature="0"
             id="path1124"
             d="m -1059.9265,438.06394 20.7244,-37.61782 17.6536,37.74278"
             style="fill:none;stroke:#000000;stroke-width:10.43954372;stroke-linecap:butt;stroke-linejoin:round;stroke-miterlimit:4;stroke-dasharray:none;stroke-opacity:1" />
          <path
             style="opacity:0.98000004;fill:none;fill-opacity:0.88593158;fill-rule:evenodd;stroke:#000000;stroke-width:11.33858299;stroke-linecap:round;stroke-linejoin:round;stroke-miterlimit:4;stroke-dasharray:none;stroke-opacity:1;paint-order:normal"
             d="m -648.06278,489.88458 c -4.57518,11.67651 -10.20396,22.83802 -16.77477,33.36249 -6.57082,10.52448 -14.08367,20.41191 -22.42703,29.54027 -8.34335,9.12835 -17.5172,17.49763 -27.41001,24.98579 -9.8928,7.48816 -20.50456,14.09521 -31.72372,19.69909 -11.21917,5.60389 -23.04574,10.20462 -35.36818,13.68015 -12.32243,3.47553 -25.14073,5.82586 -38.34335,6.92896 -105.62092,8.82478 -200.23266,-65.14848 -217.14736,-169.77902 -2.1143,-13.07882 -2.9256,-20.37125 -2.5252,-33.16818"
             id="path1134"
             inkscape:connector-curvature="0"
             sodipodi:nodetypes="csssssssc" />
          <path
             sodipodi:nodetypes="csssssssc"
             inkscape:connector-curvature="0"
             id="path1138"
             d="m -634.14706,416.68278 c 0.6828,-105.98676 -80.3418,-194.63471 -185.96274,-203.45947 -13.20261,-1.10309 -26.23321,-0.91247 -38.96154,0.47003 -12.72833,1.38251 -25.15439,3.9569 -37.14794,7.62133 -11.99354,3.66443 -23.55457,8.4189 -34.55283,14.16158 -10.99826,5.74269 -21.43375,12.47357 -31.17622,20.09083 -9.74248,7.61726 -18.79193,16.12089 -27.01812,25.40905 -8.22619,9.28816 -15.62915,19.36085 -22.07855,30.11624 -6.4494,10.75538 -11.9453,22.19347 -16.3574,34.21241"
             style="opacity:0.98000004;fill:none;fill-opacity:0.88593158;fill-rule:evenodd;stroke:#000000;stroke-width:11.33858299;stroke-linecap:round;stroke-linejoin:round;stroke-miterlimit:4;stroke-dasharray:none;stroke-opacity:1;paint-order:normal" />
          <path
             style="fill:none;stroke:#000000;stroke-width:10.43954372;stroke-linecap:butt;stroke-linejoin:round;stroke-miterlimit:4;stroke-dasharray:none;stroke-opacity:1"
             d="m -654.35025,396.18321 20.7244,37.61782 17.6536,-37.74278"
             id="path1142"
             inkscape:connector-curvature="0" />
        </g>
      </g>
    </g>
  </g>
</svg>
